<?xml version="1.0" standalone="no"?>
<!DOCTYPE svg PUBLIC "-//W3C//DTD SVG 1.1//EN" "http://www.w3.org/Graphics/SVG/1.1/DTD/svg11.dtd" >
<svg xmlns="http://www.w3.org/2000/svg">
<metadata></metadata>
<defs>
<font id="humnst777_cn_btregular" horiz-adv-x="1008" >
<font-face units-per-em="2048" ascent="1556" descent="-492" />
<missing-glyph horiz-adv-x="504" />
<glyph horiz-adv-x="0" />
<glyph unicode="&#xd;" horiz-adv-x="504" />
<glyph unicode=" "  horiz-adv-x="504" />
<glyph unicode="&#x09;" horiz-adv-x="504" />
<glyph unicode="&#xa0;" horiz-adv-x="504" />
<glyph unicode="!" horiz-adv-x="592" d="M205 0v211h186v-211h-186zM205 1421h186l-31 -1046h-124z" />
<glyph unicode="&#x22;" horiz-adv-x="590" d="M94 881v553h117v-553h-117zM377 881v553h119v-553h-119z" />
<glyph unicode="#" horiz-adv-x="1575" d="M104 467l43 123h320l96 272h-342l43 123h344l168 471h146l-166 -471h260l168 471h143l-164 -471h307l-43 -123h-311l-94 -272h330l-43 -123h-332l-166 -469h-145l168 469h-265l-168 -469h-143l166 469h-320zM614 590h263l96 272h-264z" />
<glyph unicode="$" d="M115 1065q0 145 89 241t240 111v176h88l1 -172q74 -3 140.5 -18.5t129.5 -44.5l-15 -156q-61 39 -125.5 60t-129.5 24l-1 -469q189 -100 262.5 -195.5t73.5 -234.5q0 -156 -91 -259t-249 -126v-192h-88v188q-86 0 -163.5 15t-151.5 46l16 160q60 -38 136.5 -60.5 t162.5 -27.5v541q-176 89 -250.5 179.5t-74.5 213.5zM285 1083q0 -69 34.5 -118t124.5 -105v422q-76 -15 -117.5 -67t-41.5 -132zM528 137q81 17 124.5 77t43.5 153q0 91 -38 150.5t-130 109.5v-490z" />
<glyph unicode="%" horiz-adv-x="1540" d="M63 1055q0 184 73 285.5t204 101.5q133 0 205.5 -102t72.5 -289q0 -189 -72.5 -290.5t-207.5 -101.5q-131 0 -203 103.5t-72 292.5zM203 1051q0 -138 33.5 -204.5t103.5 -66.5q71 0 105 66.5t34 204.5q0 137 -34 203.5t-105 66.5q-70 0 -103.5 -66.5t-33.5 -203.5z M412 -20l589 1462h127l-589 -1462h-127zM922 375q0 183 73.5 285t204.5 102q133 0 206 -102t73 -289q0 -188 -74 -289.5t-209 -101.5q-131 0 -202.5 103t-71.5 292zM1061 371q0 -138 33.5 -204.5t103.5 -66.5q71 0 105 66.5t34 204.5q0 137 -34 203.5t-105 66.5 q-70 0 -103.5 -66.5t-33.5 -203.5z" />
<glyph unicode="&#x26;" horiz-adv-x="1161" d="M63 391q0 132 63.5 232t201.5 184q-74 92 -107 167.5t-33 151.5q0 140 90 228t234 88q147 0 232 -80.5t85 -218.5q0 -115 -66 -206.5t-200 -162.5l275 -373q38 71 57.5 172.5t19.5 229.5h160v-45q0 -131 -36.5 -257.5t-102.5 -224.5l201 -276h-203l-103 154 q-76 -90 -166.5 -132t-207.5 -42q-177 0 -285.5 113t-108.5 298zM242 395q0 -125 68 -197.5t186 -72.5q76 0 137 34t110 105l-315 430q-93 -53 -139.5 -128t-46.5 -171zM354 1145q0 -59 30 -124.5t93 -141.5q96 48 144.5 115t48.5 151q0 76 -41.5 120t-114.5 44 t-116.5 -44.5t-43.5 -119.5z" />
<glyph unicode="'" horiz-adv-x="305" d="M94 881v553h117v-553h-117z" />
<glyph unicode="(" horiz-adv-x="524" d="M100 637q0 211 70 436.5t211 472.5h129q-128 -254 -187 -473t-59 -436q0 -219 59.5 -438t186.5 -469h-129q-142 248 -211.5 472t-69.5 435z" />
<glyph unicode=")" horiz-adv-x="524" d="M14 -270q129 255 187.5 472.5t58.5 434.5t-59 436.5t-187 472.5h129q142 -248 212.5 -474t70.5 -435t-70 -433t-213 -474h-129z" />
<glyph unicode="*" horiz-adv-x="711" d="M18 1229l45 139l244 -104l-26 262h149l-24 -262l241 104l45 -139l-258 -58l176 -198l-121 -86l-133 227l-133 -227l-121 86l174 198z" />
<glyph unicode="+" horiz-adv-x="1706" d="M254 553v117h541v551h118v-551h539v-117h-539v-553h-118v553h-541z" />
<glyph unicode="," horiz-adv-x="504" d="M76 -242l100 471h182l-133 -471h-149z" />
<glyph unicode="-" horiz-adv-x="602" d="M84 461v147h434v-147h-434z" />
<glyph unicode="." horiz-adv-x="504" d="M158 0v229h188v-229h-188z" />
<glyph unicode="/" horiz-adv-x="518" d="M-53 -190l436 1628h133l-436 -1628h-133z" />
<glyph unicode="0" d="M88 711q0 355 107 543t309 188t309 -188t107 -543t-107.5 -542t-308.5 -187q-203 0 -309.5 186.5t-106.5 542.5zM266 711q0 -288 60 -435t178 -147q117 0 177 147t60 435t-60 435.5t-177 147.5q-118 0 -178 -146.5t-60 -436.5z" />
<glyph unicode="1" d="M180 1145l291 276h150v-1421h-166v1212l-185 -192z" />
<glyph unicode="2" d="M98 0v160q291 335 413 539.5t122 349.5q0 112 -57.5 175.5t-159.5 63.5q-66 0 -129.5 -24.5t-132.5 -77.5l-23 166q63 42 145 66t166 24q168 0 268.5 -101.5t100.5 -269.5q0 -173 -122 -390t-396 -525h541v-156h-736z" />
<glyph unicode="3" d="M86 33l14 164q64 -34 127 -50t131 -16q142 0 219.5 74t77.5 209q0 129 -74.5 189.5t-236.5 60.5q-34 0 -52.5 -1t-35.5 -4v154h6q55 -4 80 -4q147 0 227 63.5t80 180.5q0 118 -64.5 180.5t-187.5 62.5q-61 0 -121.5 -20t-130.5 -64l-18 162q67 33 146.5 50.5t162.5 17.5 q181 0 289.5 -102t108.5 -271q0 -125 -69.5 -210.5t-197.5 -117.5q130 -20 203.5 -111t73.5 -233q0 -193 -124.5 -305t-338.5 -112q-76 0 -150.5 13t-144.5 40z" />
<glyph unicode="4" d="M63 326v159l506 936h211v-952h156v-143h-156v-326h-166v326h-551zM207 469h409v766z" />
<glyph unicode="5" d="M143 33l13 174q51 -38 114.5 -57t137.5 -19q138 0 213 82t75 233q0 153 -73.5 232.5t-214.5 79.5q-65 0 -126 -13t-120 -38v714h645v-145h-483v-397q45 11 80.5 15.5t68.5 4.5q188 0 294.5 -116.5t106.5 -321.5q0 -225 -122.5 -352t-339.5 -127q-69 0 -138 13t-131 38z " />
<glyph unicode="6" d="M109 623q0 420 124 619.5t385 199.5q62 0 122 -10.5t120 -30.5l-16 -164q-46 31 -100 46t-115 15q-167 0 -250.5 -133t-89.5 -411q44 73 111 111t153 38q164 0 263 -121.5t99 -322.5q0 -225 -107.5 -351t-299.5 -126q-197 0 -298 163t-101 478zM297 442q0 -153 57 -235 t164 -82q108 0 165.5 81.5t57.5 233.5q0 157 -57 238.5t-166 81.5q-107 0 -164 -82t-57 -236z" />
<glyph unicode="7" d="M117 1274v147h735v-178l-420 -1243h-196l450 1274h-569z" />
<glyph unicode="8" d="M92 371q0 126 64.5 218.5t195.5 153.5q-111 64 -167 149.5t-56 192.5q0 157 104 257t267 100q175 0 277 -90.5t102 -243.5q0 -105 -57 -191.5t-175 -160.5q143 -77 205.5 -169t62.5 -225q0 -169 -111.5 -275.5t-289.5 -106.5q-189 0 -305.5 108t-116.5 283zM264 375 q0 -116 66 -184t178 -68q103 0 166 65t63 170q0 108 -66 186t-198 126q-109 -49 -159 -120t-50 -175zM295 1092q0 -87 57.5 -156t175.5 -123q95 66 139 133.5t44 147.5q0 95 -54.5 150.5t-148.5 55.5q-102 0 -157.5 -54.5t-55.5 -153.5z" />
<glyph unicode="9" d="M86 963q0 220 106 349.5t285 129.5q210 0 312 -163.5t102 -500.5q0 -404 -126 -601t-384 -197q-58 0 -118 10.5t-122 32.5l17 161q44 -30 97.5 -44.5t117.5 -14.5q166 0 249 132t91 413q-47 -75 -114.5 -113.5t-152.5 -38.5q-163 0 -261.5 121.5t-98.5 323.5zM258 983 q0 -155 57 -237t164 -82q109 0 166 80.5t57 234.5q0 156 -57 237.5t-166 81.5q-107 0 -164 -81t-57 -234z" />
<glyph unicode=":" horiz-adv-x="539" d="M176 0v229h189v-229h-189zM176 813v227h189v-227h-189z" />
<glyph unicode=";" horiz-adv-x="539" d="M96 -242l101 471h182l-133 -471h-150zM176 813v227h189v-227h-189z" />
<glyph unicode="&#x3c;" horiz-adv-x="1706" d="M264 559v103l1178 483v-127l-1000 -408l1000 -405v-129z" />
<glyph unicode="=" horiz-adv-x="1706" d="M254 360v117h1198v-117h-1198zM254 743v117h1198v-117h-1198z" />
<glyph unicode="&#x3e;" horiz-adv-x="1706" d="M264 76v129l1000 405l-1000 408v127l1178 -483v-103z" />
<glyph unicode="?" horiz-adv-x="813" d="M70 1386q65 28 126.5 42t116.5 14q180 0 282.5 -95.5t102.5 -261.5q0 -169 -151 -382l-21 -30q-60 -85 -81 -149t-21 -141v-8h-154v26q0 63 7.5 110.5t23.5 86.5q19 47 120 195.5t101 263.5q0 114 -59.5 175.5t-169.5 61.5q-50 0 -102 -16.5t-105 -48.5zM252 0v211h186 v-211h-186z" />
<glyph unicode="@" horiz-adv-x="2048" d="M113 522q0 163 50.5 309t149.5 269q146 176 349.5 267t453.5 91q165 0 311 -43.5t248 -124.5q129 -99 195.5 -230t66.5 -282q0 -169 -62.5 -308.5t-182.5 -236.5q-69 -55 -148.5 -83.5t-163.5 -28.5q-99 0 -148.5 39t-49.5 116q0 3 1 11t1 12q-51 -87 -127 -132.5 t-170 -45.5q-153 0 -233.5 85t-80.5 247q0 230 137 389t332 159q91 0 153.5 -39.5t96.5 -117.5l58 121h110l-141 -568q-6 -24 -9 -44t-3 -36q0 -44 27.5 -67t82.5 -23q45 0 100 24t103 64q89 76 139.5 196.5t50.5 254.5q0 266 -195.5 428t-518.5 162q-168 0 -312.5 -52 t-259.5 -153q-140 -122 -211 -282.5t-71 -354.5q0 -173 60.5 -304t186.5 -230q101 -81 240 -124.5t295 -43.5q172 0 334.5 48.5t296.5 139.5l45 -66q-147 -109 -313 -165t-347 -56q-191 0 -348 46.5t-276 138.5q-153 117 -228 272t-75 352zM713 446q0 -110 51 -169.5 t145 -59.5q102 0 183.5 70.5t109.5 185.5l60 242q-17 90 -72 140t-135 50q-146 0 -244 -131.5t-98 -327.5z" />
<glyph unicode="A" horiz-adv-x="1139" d="M4 0l473 1421h199l457 -1421h-189l-108 373h-539l-115 -373h-178zM344 522h444l-217 719z" />
<glyph unicode="B" horiz-adv-x="1012" d="M162 0v1421h311q212 0 322 -88t110 -258q0 -133 -61.5 -217.5t-179.5 -112.5q132 -27 202 -111t70 -216q0 -218 -121.5 -318t-388.5 -100h-264zM334 147h127q152 0 224.5 63t72.5 196q0 134 -72 197t-225 63h-127v-519zM334 807h127q135 0 199.5 59t64.5 183 q0 118 -68 171.5t-223 53.5h-100v-467z" />
<glyph unicode="C" horiz-adv-x="1049" d="M92 719q0 329 167 527t443 198q67 0 134.5 -12.5t136.5 -36.5v-172q-57 34 -119.5 50.5t-132.5 16.5q-209 0 -324.5 -148t-115.5 -415q0 -279 121.5 -437.5t332.5 -158.5q64 0 125.5 16.5t120.5 49.5v-168q-64 -25 -130.5 -37t-141.5 -12q-277 0 -447 202t-170 537z" />
<glyph unicode="D" horiz-adv-x="1196" d="M162 0v1421h237q357 0 528 -174t171 -536q0 -343 -181 -527t-518 -184h-237zM338 147h65q248 0 378 145t130 419q0 290 -120 426.5t-375 136.5h-78v-1127z" />
<glyph unicode="E" horiz-adv-x="936" d="M162 0v1421h647v-147h-471v-467h446v-150h-446v-510h496v-147h-672z" />
<glyph unicode="F" horiz-adv-x="844" d="M162 0v1421h626v-147h-450v-471h432v-150h-432v-653h-176z" />
<glyph unicode="G" horiz-adv-x="1200" d="M92 709q0 340 173 537.5t470 197.5q85 0 162 -15t141 -45l-8 -174q-70 44 -141.5 65t-147.5 21q-216 0 -338 -151t-122 -422q0 -286 116 -440t330 -154q54 0 98.5 9.5t85.5 29.5v461h-235v147h405v-717q-80 -40 -167.5 -59.5t-184.5 -19.5q-305 0 -471 189t-166 540z" />
<glyph unicode="H" horiz-adv-x="1169" d="M162 0v1421h176v-608h493v608h177v-1421h-177v659h-493v-659h-176z" />
<glyph unicode="I" horiz-adv-x="500" d="M162 0v1421h176v-1421h-176z" />
<glyph unicode="J" horiz-adv-x="616" d="M10 0l4 156q25 -9 48.5 -13t46.5 -4q97 0 136.5 60t39.5 239v983h176v-966q0 -270 -76.5 -371.5t-259.5 -101.5q-28 0 -57 4.5t-58 13.5z" />
<glyph unicode="K" horiz-adv-x="1006" d="M162 0v1421h176v-614l471 614h209l-524 -665l573 -756h-219l-510 688v-688h-176z" />
<glyph unicode="L" horiz-adv-x="807" d="M162 0v1421h176v-1267h467v-154h-643z" />
<glyph unicode="M" horiz-adv-x="1571" d="M162 0v1421h258l366 -1153l365 1153h264v-1421h-166v1264l-405 -1264h-125l-402 1264v-1264h-155z" />
<glyph unicode="N" horiz-adv-x="1245" d="M162 0v1421h209l549 -1179v1179h161v-1421h-215l-540 1165v-1165h-164z" />
<glyph unicode="O" horiz-adv-x="1233" d="M94 711q0 350 136.5 540.5t385.5 190.5q250 0 386.5 -190.5t136.5 -540.5q0 -351 -136.5 -541t-386.5 -190q-249 0 -385.5 190t-136.5 541zM281 711q0 -287 85.5 -435.5t249.5 -148.5t250 149.5t86 434.5q0 284 -86 433.5t-250 149.5t-249.5 -148.5t-85.5 -434.5z" />
<glyph unicode="P" horiz-adv-x="963" d="M162 0v1421h289q232 0 345 -99.5t113 -303.5q0 -219 -117.5 -319.5t-373.5 -100.5h-80v-598h-176zM338 748h125q144 0 205 62.5t61 209.5q0 137 -65 195.5t-226 58.5h-100v-526z" />
<glyph unicode="Q" horiz-adv-x="1233" d="M94 711q0 350 136.5 540.5t385.5 190.5q250 0 386.5 -190.5t136.5 -540.5q0 -266 -74.5 -434.5t-224.5 -243.5l252 -295h-205l-208 246q-15 -1 -33 -1.5t-46 -0.5q-238 0 -372 192t-134 537zM281 711q0 -287 85.5 -435.5t249.5 -148.5t250 149.5t86 434.5 q0 284 -86 433.5t-250 149.5t-249.5 -148.5t-85.5 -434.5z" />
<glyph unicode="R" horiz-adv-x="1024" d="M162 0v1421h241q284 0 399.5 -86.5t115.5 -285.5q0 -139 -74 -225.5t-213 -112.5q70 -8 109.5 -47.5t80.5 -157.5l178 -506h-188l-154 453q-41 123 -83.5 155.5t-137.5 32.5h-100v-641h-174zM336 788h76q181 0 253 59t72 200q0 123 -68.5 175t-246.5 52h-86v-486z" />
<glyph unicode="S" horiz-adv-x="895" d="M94 1055q0 172 109 279.5t284 107.5q65 0 126 -10.5t122 -32.5l-4 -172q-52 34 -111 51.5t-122 17.5q-107 0 -165.5 -53t-58.5 -149q0 -122 213 -267q39 -26 60 -41q150 -103 207 -191.5t57 -207.5q0 -183 -116.5 -295t-305.5 -112q-78 0 -150.5 17t-134.5 50l17 170 q61 -44 131.5 -67t144.5 -23q110 0 171 59t61 164q0 85 -43 147t-211 175q-172 117 -226.5 197.5t-54.5 185.5z" />
<glyph unicode="T" horiz-adv-x="901" d="M37 1270v151h827v-151h-325v-1270h-177v1270h-325z" />
<glyph unicode="U" horiz-adv-x="1188" d="M156 522v899h176v-915q0 -202 63 -290.5t203 -88.5t203 88.5t63 290.5v915h168v-899q0 -277 -107 -409.5t-331 -132.5q-223 0 -330.5 133t-107.5 409z" />
<glyph unicode="V" horiz-adv-x="1085" d="M23 1421h190l322 -1216l350 1216h176l-440 -1421h-181z" />
<glyph unicode="W" horiz-adv-x="1683" d="M55 1421h176l242 -1235l258 1235h223l252 -1235l250 1235h166l-311 -1421h-211l-264 1249l-267 -1249h-209z" />
<glyph unicode="X" horiz-adv-x="1100" d="M25 0l424 739l-383 682h204l287 -536l299 536h188l-389 -671l416 -750h-201l-323 600l-336 -600h-186z" />
<glyph unicode="Y" horiz-adv-x="965" d="M-31 1421h203l322 -659l315 659h186l-415 -823v-598h-177v600z" />
<glyph unicode="Z" horiz-adv-x="901" d="M55 0v178l590 1092h-565v151h756v-168l-596 -1101h606v-152h-791z" />
<glyph unicode="[" horiz-adv-x="524" d="M162 -270v1816h297v-116h-154v-1586h154v-114h-297z" />
<glyph unicode="\" horiz-adv-x="518" d="M2 1438h133l436 -1628h-133z" />
<glyph unicode="]" horiz-adv-x="524" d="M66 -156h155v1586h-155v116h299v-1816h-299v114z" />
<glyph unicode="^" horiz-adv-x="2048" d="M422 901l520 557h162l520 -557h-158l-442 438l-442 -438h-160z" />
<glyph unicode="_" horiz-adv-x="1024" d="M0 -365h1024v-118h-1024v118z" />
<glyph unicode="`" horiz-adv-x="1024" d="M260 1526h182l205 -355h-104z" />
<glyph unicode="a" horiz-adv-x="938" d="M57 293q0 170 121.5 258t358.5 88q5 0 37.5 -2.5t60.5 -3.5v63q0 111 -55.5 169.5t-161.5 58.5q-74 0 -137 -26.5t-115 -78.5l-19 154q69 42 146 65t151 23q194 0 276.5 -94.5t82.5 -327.5v-442q0 -62 2.5 -108.5t7.5 -88.5h-158l-16 125q-49 -74 -118 -109.5t-163 -35.5 q-137 0 -219 84.5t-82 228.5zM225 301q0 -88 47 -137t131 -49q119 0 175.5 78.5t56.5 244.5v80q-17 1 -38 1.5t-65 0.5q-155 0 -231 -54t-76 -165z" />
<glyph unicode="b" horiz-adv-x="1012" d="M145 0v1528h168v-625q45 79 106 118.5t138 39.5q186 0 278.5 -135t92.5 -406q0 -264 -92 -402t-267 -138q-89 0 -153.5 41.5t-114.5 132.5v-11q-4 -95 -9 -143h-147zM313 459q0 -162 57.5 -251t159.5 -89q108 0 163 101t55 300q0 198 -54.5 299t-161.5 101 q-104 0 -161.5 -88t-57.5 -250v-123z" />
<glyph unicode="c" horiz-adv-x="772" d="M84 524q0 249 121 393t330 144q49 0 99 -9t103 -28l-4 -156q-45 27 -85.5 38.5t-86.5 11.5q-147 0 -222 -95.5t-75 -281.5q0 -203 78 -310.5t223 -107.5q44 0 87 10.5t93 34.5l5 -145q-53 -21 -109.5 -31t-114.5 -10q-206 0 -324 143.5t-118 398.5z" />
<glyph unicode="d" horiz-adv-x="1012" d="M84 520q0 271 92.5 406t278.5 135q77 0 137.5 -39.5t105.5 -118.5v625h170v-1528h-149q-5 54 -6.5 88t-1.5 66q-52 -92 -116 -133t-153 -41q-175 0 -266.5 137.5t-91.5 402.5zM264 520q0 -200 54 -300.5t161 -100.5q105 0 162 88.5t57 251.5v123q0 162 -57 250t-162 88 q-107 0 -161 -101t-54 -299z" />
<glyph unicode="e" horiz-adv-x="915" d="M82 518q0 249 106.5 396t286.5 147q165 0 263 -131t98 -352q0 -47 -0.5 -67t-2.5 -36h-575q5 -175 78.5 -265.5t210.5 -90.5q58 0 115 16.5t118 50.5l4 -143q-56 -31 -121.5 -46t-142.5 -15q-218 0 -328 134.5t-110 401.5zM256 596h414v8q0 156 -50 238t-145 82 q-99 0 -153.5 -81.5t-65.5 -246.5z" />
<glyph unicode="f" horiz-adv-x="537" d="M6 907v133h170v195q0 170 61.5 241.5t204.5 71.5q26 0 54 -3.5t63 -10.5v-139q-35 7 -53 9.5t-33 2.5q-71 0 -100 -37t-29 -137v-193h180v-133h-180v-907h-168v907h-170z" />
<glyph unicode="g" horiz-adv-x="1012" d="M84 530q0 257 92.5 394t265.5 137q89 0 153 -41.5t116 -132.5q2 61 4 94.5t4 58.5h158q-4 -91 -6.5 -163.5t-2.5 -106.5v-657q0 -314 -103.5 -441t-346.5 -127q-82 0 -155 14.5t-142 43.5l14 159q70 -40 138.5 -58.5t144.5 -18.5q151 0 216.5 92t65.5 307q0 11 -1 34 t-1 36q-46 -80 -107.5 -117t-146.5 -37q-177 0 -268.5 134.5t-91.5 395.5zM264 532q0 -195 54 -294t161 -99q104 0 161.5 86.5t57.5 245.5v121q0 157 -57.5 243.5t-161.5 86.5q-107 0 -161 -98t-54 -292z" />
<glyph unicode="h" horiz-adv-x="995" d="M145 0v1528h170v-613q49 74 114 110t149 36q133 0 208.5 -88.5t75.5 -247.5v-725h-170v700q0 106 -40 158.5t-122 52.5q-99 0 -157 -76t-58 -208v-6v-621h-170z" />
<glyph unicode="i" horiz-adv-x="449" d="M131 1262v200h186v-200h-186zM141 0v1040h168v-1040h-168z" />
<glyph unicode="j" horiz-adv-x="449" d="M-31 -440l5 139q15 -4 29.5 -6t33.5 -2q60 0 82 40.5t22 202.5v41v1065h168v-1106q0 -226 -53.5 -307.5t-183.5 -81.5q-27 0 -52 3.5t-51 11.5zM131 1262v200h186v-200h-186z" />
<glyph unicode="k" horiz-adv-x="862" d="M141 0v1528h168v-901l357 413h190l-401 -460l436 -580h-197l-385 520v-520h-168z" />
<glyph unicode="l" horiz-adv-x="449" d="M141 0v1528h168v-1528h-168z" />
<glyph unicode="m" horiz-adv-x="1481" d="M135 1040h156q4 -49 7 -145v-6q39 82 107 127t150 45q88 0 154.5 -44t95.5 -122q50 85 115.5 125.5t154.5 40.5q129 0 200 -87.5t71 -248.5v-725h-168v700q0 106 -38 158.5t-114 52.5q-91 0 -144 -77t-53 -213v-621h-167v700q0 106 -38 158.5t-114 52.5q-92 0 -144.5 -77 t-52.5 -213v-621h-168v780q0 58 -2.5 121.5t-7.5 138.5z" />
<glyph unicode="n" horiz-adv-x="995" d="M135 1040h156q4 -49 7 -145v-6q41 82 113.5 127t161.5 45q139 0 214 -87.5t75 -248.5v-725h-170v700q0 106 -40 158.5t-122 52.5q-99 0 -157 -76t-58 -208v-6v-621h-170v780q0 58 -2.5 121.5t-7.5 138.5z" />
<glyph unicode="o" horiz-adv-x="995" d="M84 520q0 260 107.5 400.5t306.5 140.5t306 -140t107 -401q0 -260 -107.5 -400t-305.5 -140q-199 0 -306.5 140t-107.5 400zM264 520q0 -193 60.5 -296t173.5 -103t173 103t60 296q0 194 -60 298t-173 104t-173.5 -104t-60.5 -298z" />
<glyph unicode="p" horiz-adv-x="1012" d="M135 1040h158q2 -27 4 -58.5t4 -94.5q50 89 115 131.5t153 42.5q175 0 267 -138t92 -403t-91.5 -402.5t-267.5 -137.5q-84 0 -146.5 38t-109.5 119v-583h-168v1216q0 17 -5 151q-3 74 -5 119zM313 459q0 -162 57 -250t160 -88q108 0 163 100t55 299q0 200 -54.5 301 t-161.5 101q-103 0 -161 -89.5t-58 -250.5v-123z" />
<glyph unicode="q" horiz-adv-x="1012" d="M84 520q0 270 93 405.5t278 135.5q80 0 144 -43.5t112 -130.5q0 31 1.5 65t6.5 88h158q-4 -88 -6.5 -159.5t-2.5 -110.5v-1216h-170v583q-47 -82 -108.5 -119.5t-147.5 -37.5q-175 0 -266.5 137.5t-91.5 402.5zM264 520q0 -199 54 -299t161 -100q105 0 162 88t57 250v123 q0 161 -57.5 250.5t-161.5 89.5q-106 0 -160.5 -101.5t-54.5 -300.5z" />
<glyph unicode="r" horiz-adv-x="592" d="M135 1040h156q5 -71 6 -107.5t2 -68.5q40 97 107.5 146t162.5 49h19l-1 -170q-12 1 -22 1.5t-20 0.5q-112 0 -172 -76.5t-60 -220.5v-594h-168v780q0 58 -2.5 121.5t-7.5 138.5z" />
<glyph unicode="s" horiz-adv-x="764" d="M80 33l14 160q56 -39 118 -58.5t128 -19.5q86 0 133 40t47 113q0 52 -31 90t-153 107l-4 2q-238 133 -238 297q0 136 87.5 215.5t238.5 79.5q48 0 99.5 -8.5t109.5 -26.5l-15 -152q-46 24 -94.5 36t-95.5 12q-76 0 -117 -35.5t-41 -102.5q0 -52 28 -87.5t122 -84.5 q162 -85 217 -156t55 -171q0 -138 -94.5 -223t-251.5 -85q-68 0 -133.5 14.5t-128.5 43.5z" />
<glyph unicode="t" horiz-adv-x="578" d="M6 907v133h158v211l168 52v-263h209v-133h-209v-588q0 -112 26 -150t93 -38q25 0 48.5 4t45.5 12v-137q-41 -11 -76.5 -16.5t-67.5 -5.5q-132 0 -184.5 68t-52.5 284v567h-158z" />
<glyph unicode="u" horiz-adv-x="995" d="M135 315v725h170v-700q0 -106 40.5 -158.5t121.5 -52.5q99 0 157 76.5t58 210.5v6v618h170v-778q0 -72 2 -136.5t6 -125.5h-155q-3 30 -5 101q-1 32 -2 51q-39 -83 -111 -127.5t-163 -44.5q-139 0 -214 87t-75 248z" />
<glyph unicode="v" horiz-adv-x="893" d="M37 1040h184l225 -864l236 864h174l-313 -1040h-203z" />
<glyph unicode="w" horiz-adv-x="1444" d="M43 1040h174l199 -872l207 872h192l211 -872l201 872h170l-279 -1040h-188l-217 870l-207 -870h-191z" />
<glyph unicode="x" horiz-adv-x="825" d="M10 0l297 563l-270 477h188l193 -376l198 376h183l-287 -489l307 -551h-190l-232 446l-215 -446h-172z" />
<glyph unicode="y" horiz-adv-x="862" d="M35 1040h186l223 -850l224 850h163l-337 -1175q-57 -197 -116 -258.5t-163 -61.5q-34 0 -63 4t-56 13l15 145q28 -8 44.5 -11t28.5 -3q55 0 86.5 34t55.5 119l32 117z" />
<glyph unicode="z" horiz-adv-x="774" d="M57 0v166l465 735h-450v139h630v-163l-466 -738h473v-139h-652z" />
<glyph unicode="{" horiz-adv-x="1024" d="M172 467v127q8 0 23 -1t22 -1q134 0 189 61.5t55 214.5v244q0 153 22.5 215.5t77.5 97.5q42 28 102 40t160 12h35v-127q-8 0 -23 1t-22 1q-121 0 -164 -47t-43 -197v-242q0 -166 -43.5 -235.5t-154.5 -100.5q111 -30 154.5 -99.5t43.5 -235.5v-242q0 -149 43.5 -195.5 t169.5 -46.5h39v-125h-35q-99 0 -159.5 12t-102.5 40q-55 36 -77.5 100t-22.5 213v244q0 152 -55 213t-189 61q-7 0 -22 -1t-23 -1z" />
<glyph unicode="|" horiz-adv-x="1024" d="M449 -483v2048h126v-2048h-126z" />
<glyph unicode="}" horiz-adv-x="1024" d="M166 -289q8 0 23 -1t22 -1q120 0 163.5 47.5t43.5 198.5v240q0 166 43.5 235.5t154.5 99.5q-111 31 -154.5 100.5t-43.5 235.5v242q0 149 -44 196.5t-169 47.5h-39v125h35q100 0 161 -12.5t103 -39.5q54 -35 76 -98t22 -215v-244q0 -152 55.5 -214t190.5 -62q7 0 22 1 t23 1v-127q-8 0 -23 1t-22 1q-135 0 -190.5 -62t-55.5 -214v-242q0 -153 -22 -216.5t-76 -99.5q-39 -26 -97.5 -37.5t-160.5 -11.5h-41v125z" />
<glyph unicode="~" horiz-adv-x="1706" d="M178 461v133q105 73 202 109t185 36q56 0 116.5 -12.5t174.5 -52.5q14 -5 44 -16q158 -58 245 -58q84 0 174.5 37t210.5 121v-131q-101 -72 -197.5 -108t-189.5 -36q-43 0 -90.5 9t-100.5 26q-30 10 -87 31q-202 72 -302 72q-83 0 -173.5 -37.5t-211.5 -122.5z" />
<glyph unicode="&#xa0;" />
<glyph unicode="&#xa1;" horiz-adv-x="592" d="M205 0l31 1047h124l31 -1047h-186zM205 1212v209h186v-209h-186z" />
<glyph unicode="&#xa2;" d="M139 524q0 242 124 383.5t337 141.5h4l33 229h80l-35 -234q30 -3 62.5 -11t74.5 -21l-16 -164q-36 21 -70 34t-67 19l-109 -751q2 -1 5 -1q36 -4 54 -4q48 0 96 12t101 36l16 -152q-49 -22 -109.5 -33.5t-125.5 -11.5q-14 0 -29 0.5t-30 1.5l-35 -256h-78l37 270 q-147 40 -233.5 178t-86.5 334zM317 528q0 -135 43 -227.5t121 -128.5l104 731q-126 -3 -197 -101.5t-71 -273.5z" />
<glyph unicode="&#xa3;" d="M127 0v145h141v549h-141v131h141v125q0 243 106.5 367.5t313.5 124.5q59 0 115 -12t112 -37l-24 -152q-38 28 -85 41.5t-106 13.5q-130 0 -195 -86.5t-65 -261.5v-123h318v-131h-318v-549h461v-145h-774z" />
<glyph unicode="&#xa4;" d="M10 514l25 96h115q-3 28 -4 50.5t-1 41.5q0 35 4 103l1 6h-140l25 98h125q37 251 165 393t314 142q54 0 109 -12.5t110 -36.5v-172q-55 36 -107.5 53.5t-105.5 17.5q-123 0 -204.5 -101t-104.5 -284h465l-27 -98h-446q-1 -18 -1.5 -39t-0.5 -63v-64v-3q2 -17 2 -32h393 l-27 -96h-354q31 -180 114 -279.5t199 -99.5q44 0 97.5 15.5t113.5 46.5v-168q-50 -25 -102 -36t-117 -11q-182 0 -313 142.5t-172 389.5h-150z" />
<glyph unicode="&#xa5;" d="M6 1421h193l317 -659l311 659h174l-245 -495h213v-99h-260l-101 -200h361v-97h-373v-530h-166v530h-391v97h379l-107 200h-272v99h221z" />
<glyph unicode="&#xa6;" horiz-adv-x="1024" d="M449 -350v758h126v-758h-126zM449 674v758h126v-758h-126z" />
<glyph unicode="&#xa7;" horiz-adv-x="928" d="M109 -186l22 147q64 -44 131.5 -66t138.5 -22q96 0 151.5 47.5t55.5 126.5q0 68 -33.5 113t-175.5 129q-173 100 -223.5 169.5t-50.5 168.5q0 80 41.5 151t122.5 127q-65 48 -96 106t-31 130q0 135 93 218t247 83q67 0 132.5 -13.5t127.5 -39.5l-23 -148 q-58 35 -113.5 51.5t-113.5 16.5q-80 0 -128 -43t-48 -115q0 -99 190 -211l21 -12q154 -91 208 -165t54 -179q0 -79 -38.5 -146.5t-115.5 -124.5q65 -51 95 -110t30 -135q0 -149 -100 -237.5t-270 -88.5q-79 0 -154.5 18t-146.5 54zM287 659q0 -73 55.5 -133.5t214.5 -148.5 q49 43 71.5 88t22.5 100q0 75 -64 142t-202 135q-48 -36 -73 -82.5t-25 -100.5z" />
<glyph unicode="&#xa8;" horiz-adv-x="1024" d="M262 1243v187h168v-187h-168zM594 1243v187h166v-187h-166z" />
<glyph unicode="&#xa9;" horiz-adv-x="1706" d="M119 725q0 145 56.5 279.5t162.5 242.5q102 104 234 158.5t280 54.5q151 0 285 -55t239 -160q102 -102 156.5 -236t54.5 -284q0 -151 -54 -283t-157 -233q-109 -106 -244.5 -162.5t-279.5 -56.5q-146 0 -278 55.5t-238 161.5q-106 105 -161.5 238.5t-55.5 279.5zM207 725 q0 -127 49 -244t141 -211q93 -92 209.5 -141t245.5 -49t248.5 50t214.5 142q91 90 138.5 205.5t47.5 247.5q0 130 -49 249t-139 210q-92 92 -210 140t-251 48q-132 0 -247.5 -47.5t-205.5 -138.5q-93 -95 -142.5 -214t-49.5 -247zM465 721q0 208 107.5 332.5t287.5 124.5 q137 0 230 -74.5t104 -192.5h-129q-15 77 -70.5 120.5t-138.5 43.5q-117 0 -182.5 -92.5t-65.5 -259.5q0 -160 66.5 -252t181.5 -92q87 0 145.5 48.5t73.5 133.5h129q-11 -127 -109 -207t-245 -80q-176 0 -280.5 121t-104.5 326z" />
<glyph unicode="&#xaa;" horiz-adv-x="705" d="M43 899q0 119 91 180.5t269 61.5q6 0 31.5 -1.5l42.5 -2.5v45q0 77 -42 118t-122 41q-55 0 -102.5 -18.5t-85.5 -54.5l-14 108q52 30 110 46t113 16q145 0 206.5 -66t61.5 -231v-310q0 -39 2 -72.5t6 -64.5h-118l-13 88q-37 -52 -88.5 -77t-122.5 -25q-103 0 -164 59.5 t-61 159.5zM170 905q0 -62 35 -96.5t98 -34.5q89 0 131.5 55.5t42.5 171.5v55q-13 2 -28.5 2.5t-49.5 0.5q-116 0 -172.5 -38t-56.5 -116z" />
<glyph unicode="&#xab;" horiz-adv-x="842" d="M84 520l217 418h148l-205 -418l205 -418h-148zM426 520l215 418h147l-204 -418l204 -418h-147z" />
<glyph unicode="&#xac;" horiz-adv-x="1706" d="M254 741v117h1198v-502h-115v385h-1083z" />
<glyph unicode="&#xad;" horiz-adv-x="602" d="M84 461v147h434v-147h-434z" />
<glyph unicode="&#xae;" horiz-adv-x="1706" d="M119 725q0 147 57 282t164 242q101 103 232 157t280 54q150 0 284 -55.5t240 -161.5q102 -102 156.5 -235.5t54.5 -282.5q0 -151 -54.5 -283t-158.5 -233q-109 -106 -243.5 -162.5t-278.5 -56.5q-145 0 -278.5 56t-239.5 163q-105 104 -160 237t-55 279zM207 725 q0 -127 49 -244t141 -211q91 -92 208 -141t245 -49q131 0 249.5 48.5t213.5 141.5q91 90 139.5 206t48.5 245q0 133 -48 251.5t-138 209.5q-94 93 -211.5 141.5t-251.5 48.5q-132 0 -247 -47t-204 -137q-94 -95 -144 -214t-50 -249zM561 317v840h311q178 0 264.5 -57 t86.5 -174q0 -89 -53 -148.5t-144 -75.5l188 -385h-157l-176 365h-179v-365h-141zM702 774h148q123 0 175 33t52 108q0 79 -54.5 114.5t-176.5 35.5h-144v-291z" />
<glyph unicode="&#xaf;" horiz-adv-x="1024" d="M244 1272v127h534v-127h-534z" />
<glyph unicode="&#xb0;" horiz-adv-x="674" d="M55 1171q0 119 82.5 201t200.5 82q117 0 200 -83t83 -200q0 -116 -83.5 -199t-201.5 -83t-199.5 82t-81.5 200zM135 1171q0 -84 59.5 -143t143.5 -59t142.5 59t58.5 143t-58.5 142.5t-142.5 58.5t-143.5 -58.5t-59.5 -142.5z" />
<glyph unicode="&#xb1;" horiz-adv-x="1706" d="M254 41v117h1198v-117h-1198zM254 719v117h541v344h118v-344h539v-117h-539v-344h-118v344h-541z" />
<glyph unicode="&#xb2;" horiz-adv-x="666" d="M66 569v97q192 202 272 324t80 208q0 69 -37.5 106t-106.5 37q-44 0 -85.5 -14.5t-86.5 -46.5l-16 100q43 26 97 40t110 14q110 0 176 -60.5t66 -161.5q0 -104 -81 -234.5t-261 -313.5h358v-95h-485z" />
<glyph unicode="&#xb3;" horiz-adv-x="666" d="M57 590l9 98q42 -21 83.5 -31t88.5 -10q92 0 143 44.5t51 125.5q0 78 -49 114t-156 36q-22 0 -34 -0.5t-23 -1.5v92q9 0 28 -1t27 -1q98 0 150.5 37.5t52.5 107.5q0 72 -42 110t-124 38q-39 0 -79 -12.5t-87 -39.5l-12 99q44 19 96 29t109 10q119 0 190.5 -61t71.5 -163 q0 -74 -46 -125t-130 -71q86 -13 134 -67t48 -140q0 -115 -82 -182.5t-223 -67.5q-53 0 -102.5 8.5t-92.5 24.5z" />
<glyph unicode="&#xb4;" horiz-adv-x="1024" d="M377 1171l205 355h182l-283 -355h-104z" />
<glyph unicode="&#xb5;" horiz-adv-x="1128" d="M-111 -426l316 1495h157l-126 -595q-8 -33 -11.5 -67t-3.5 -71q0 -109 57 -168t160 -59q125 0 208 101t128 308l121 551h156l-162 -754q-12 -52 -17.5 -84t-5.5 -51q0 -32 18.5 -48.5t53.5 -16.5q9 0 17.5 0.5t17.5 1.5l-27 -125q-21 -5 -44 -7.5t-48 -2.5 q-70 0 -104.5 35t-40.5 112q-41 -70 -117 -108.5t-172 -38.5q-87 0 -152.5 34t-109.5 103l-113 -545h-156z" />
<glyph unicode="&#xb6;" horiz-adv-x="1024" d="M76 1130q0 157 107.5 253t285.5 96h479v-78h-125v-1401h-94v1401h-182v-1401h-96v782q-173 8 -274 102.5t-101 245.5z" />
<glyph unicode="&#xb7;" horiz-adv-x="504" d="M143 713q0 45 31.5 76.5t77.5 31.5q45 0 76.5 -31.5t31.5 -76.5q0 -46 -31.5 -78.5t-76.5 -32.5t-77 33t-32 78z" />
<glyph unicode="&#xb8;" horiz-adv-x="1024" d="M268 -332q81 -18 141 -27.5t97 -9.5q66 0 97.5 20.5t31.5 63.5q0 51 -35 74t-111 23q-5 0 -19.5 -1t-23.5 -1v190h76v-104h19q106 0 163.5 -46t57.5 -131q0 -90 -60.5 -137t-177.5 -47q-54 0 -116.5 10.5t-139.5 32.5v90z" />
<glyph unicode="&#xb9;" horiz-adv-x="666" d="M119 1255l192 166h99v-852h-109v727l-123 -114z" />
<glyph unicode="&#xba;" horiz-adv-x="748" d="M63 1059q0 181 81 280t229 99q149 0 230 -98.5t81 -280.5t-81 -280.5t-230 -98.5t-229.5 98t-80.5 281zM199 1059q0 -136 44.5 -208.5t129.5 -72.5q84 0 130 72.5t46 208.5q0 135 -46 207.5t-130 72.5q-85 0 -129.5 -72t-44.5 -208z" />
<glyph unicode="&#xbb;" horiz-adv-x="842" d="M51 102l207 418l-207 418h148l217 -418l-217 -418h-148zM393 102l205 418l-205 418h148l215 -418l-215 -418h-148z" />
<glyph unicode="&#xbc;" horiz-adv-x="1612" d="M113 1268l182 155h94v-796h-104v680l-115 -109zM360 -20l760 1462h129l-755 -1462h-134zM1018 182v90l317 525h133v-535h99v-80h-99v-182h-104v182h-346zM1108 262h258v430z" />
<glyph unicode="&#xbd;" horiz-adv-x="1612" d="M113 1268l182 155h94v-796h-104v680l-115 -109zM360 -20l760 1462h129l-755 -1462h-134zM1038 0v90q185 188 261.5 302t76.5 196q0 62 -36.5 97.5t-100.5 35.5q-43 0 -83.5 -14t-82.5 -43l-14 94q40 23 91.5 36t104.5 13q106 0 169 -56.5t63 -150.5q0 -97 -76.5 -218.5 t-249.5 -293.5h340v-88h-463z" />
<glyph unicode="&#xbe;" horiz-adv-x="1612" d="M53 646l10 91q38 -18 78 -27.5t84 -9.5q91 0 140 41.5t49 116.5q0 72 -47.5 105.5t-149.5 33.5q-21 0 -33 -0.5t-22 -0.5v85q9 0 27 -1t26 -1q93 0 144 36t51 102t-41 100.5t-119 34.5q-40 0 -78 -11t-80 -34l-12 90q42 18 92 27.5t102 9.5q115 0 182.5 -57t67.5 -152 q0 -70 -43.5 -118t-122.5 -65q82 -12 128 -63t46 -129q0 -109 -78.5 -172.5t-213.5 -63.5q-49 0 -96 8t-91 24zM360 -20l760 1462h129l-755 -1462h-134zM1018 182v90l317 525h133v-535h99v-80h-99v-182h-104v182h-346zM1108 262h258v430z" />
<glyph unicode="&#xbf;" horiz-adv-x="813" d="M113 342q0 161 150 371q30 42 44 63q43 67 61.5 129.5t18.5 141.5h156v-48q0 -65 -14 -120.5t-44 -110.5q-21 -39 -73 -112q-123 -173 -123 -291q0 -114 60 -175t171 -61q52 0 104 16t103 48l16 -158q-65 -27 -125.5 -40t-117.5 -13q-182 0 -284.5 95.5t-102.5 264.5z M375 1212v209h186v-209h-186z" />
<glyph unicode="&#xc0;" horiz-adv-x="1139" d="M4 0l473 1421h199l457 -1421h-189l-108 373h-539l-115 -373h-178zM317 1907h182l205 -355h-104zM344 522h444l-217 719z" />
<glyph unicode="&#xc1;" horiz-adv-x="1139" d="M4 0l473 1421h199l457 -1421h-189l-108 373h-539l-115 -373h-178zM344 522h444l-217 719zM434 1552l205 355h182l-283 -355h-104z" />
<glyph unicode="&#xc2;" horiz-adv-x="1139" d="M4 0l473 1421h199l457 -1421h-189l-108 373h-539l-115 -373h-178zM282 1552l199 355h174l201 -355h-107l-180 250l-180 -250h-107zM344 522h444l-217 719z" />
<glyph unicode="&#xc3;" horiz-adv-x="1139" d="M4 0l473 1421h199l457 -1421h-189l-108 373h-539l-115 -373h-178zM272 1608q23 97 73 146.5t124 49.5q16 0 31 -2.5t30 -7.5l99 -31q17 -5 30.5 -7.5t24.5 -2.5q34 0 57 19t37 57h88q-26 -99 -74.5 -148t-120.5 -49q-14 0 -32 3t-36 8l-95 28q-17 5 -31 7.5t-25 2.5 q-31 0 -53.5 -17.5t-38.5 -55.5h-88zM344 522h444l-217 719z" />
<glyph unicode="&#xc4;" horiz-adv-x="1139" d="M4 0l473 1421h199l457 -1421h-189l-108 373h-539l-115 -373h-178zM319 1624v187h168v-187h-168zM344 522h444l-217 719zM651 1624v187h166v-187h-166z" />
<glyph unicode="&#xc5;" horiz-adv-x="1139" d="M4 0l473 1421h199l457 -1421h-189l-108 373h-539l-115 -373h-178zM322 1737q0 103 71 174t174 71q105 0 176.5 -71t71.5 -174q0 -104 -72 -176t-176 -72q-102 0 -173.5 72t-71.5 176zM344 522h444l-217 719zM426 1735q0 -60 41.5 -101t101.5 -41q59 0 100.5 41.5 t41.5 100.5t-41.5 101t-100.5 42q-60 0 -101.5 -41.5t-41.5 -101.5z" />
<glyph unicode="&#xc6;" horiz-adv-x="1489" d="M-49 0l676 1421h735v-147h-442v-467h417v-150h-417v-510h464v-147h-634v377h-445l-170 -377h-184zM373 524h377v770h-29z" />
<glyph unicode="&#xc7;" horiz-adv-x="1049" d="M92 719q0 329 167 527t443 198q67 0 134.5 -12.5t136.5 -36.5v-172q-57 34 -119.5 50.5t-132.5 16.5q-209 0 -324.5 -148t-115.5 -415q0 -279 121.5 -437.5t332.5 -158.5q64 0 125.5 16.5t120.5 49.5v-168q-64 -25 -130.5 -37t-141.5 -12q-277 0 -447 202t-170 537z M420 -332q81 -18 141 -27.5t97 -9.5q66 0 97.5 20.5t31.5 63.5q0 51 -35 74t-111 23q-5 0 -19.5 -1t-23.5 -1v190h76v-104h19q106 0 163.5 -46t57.5 -131q0 -90 -60.5 -137t-177.5 -47q-54 0 -116.5 10.5t-139.5 32.5v90z" />
<glyph unicode="&#xc8;" horiz-adv-x="936" d="M162 0v1421h647v-147h-471v-467h446v-150h-446v-510h496v-147h-672zM217 1907h182l205 -355h-104z" />
<glyph unicode="&#xc9;" horiz-adv-x="936" d="M162 0v1421h647v-147h-471v-467h446v-150h-446v-510h496v-147h-672zM334 1552l205 355h182l-283 -355h-104z" />
<glyph unicode="&#xca;" horiz-adv-x="936" d="M162 0v1421h647v-147h-471v-467h446v-150h-446v-510h496v-147h-672zM182 1552l199 355h174l201 -355h-107l-180 250l-180 -250h-107z" />
<glyph unicode="&#xcb;" horiz-adv-x="936" d="M162 0v1421h647v-147h-471v-467h446v-150h-446v-510h496v-147h-672zM219 1624v187h168v-187h-168zM551 1624v187h166v-187h-166z" />
<glyph unicode="&#xcc;" horiz-adv-x="500" d="M-2 1907h182l205 -355h-104zM162 0v1421h176v-1421h-176z" />
<glyph unicode="&#xcd;" horiz-adv-x="500" d="M115 1552l205 355h182l-283 -355h-104zM162 0v1421h176v-1421h-176z" />
<glyph unicode="&#xce;" horiz-adv-x="500" d="M-37 1552l199 355h174l201 -355h-107l-180 250l-180 -250h-107zM162 0v1421h176v-1421h-176z" />
<glyph unicode="&#xcf;" horiz-adv-x="500" d="M0 1624v187h168v-187h-168zM162 0v1421h176v-1421h-176zM332 1624v187h166v-187h-166z" />
<glyph unicode="&#xd0;" horiz-adv-x="1198" d="M0 676v127h166v618h237q357 0 528 -174t171 -536q0 -343 -181 -527t-518 -184h-237v676h-166zM342 147h66q246 0 375.5 144.5t129.5 419.5q0 290 -119 426.5t-374 136.5h-78v-471h270v-127h-270v-529z" />
<glyph unicode="&#xd1;" horiz-adv-x="1245" d="M162 0v1421h209l549 -1179v1179h161v-1421h-215l-540 1165v-1165h-164zM326 1608q23 97 73 146.5t124 49.5q16 0 31 -2.5t30 -7.5l99 -31q17 -5 30.5 -7.5t24.5 -2.5q34 0 57 19t37 57h88q-26 -99 -74.5 -148t-120.5 -49q-14 0 -32 3t-36 8l-95 28q-17 5 -31 7.5t-25 2.5 q-31 0 -53.5 -17.5t-38.5 -55.5h-88z" />
<glyph unicode="&#xd2;" horiz-adv-x="1233" d="M94 711q0 350 136.5 540.5t385.5 190.5q250 0 386.5 -190.5t136.5 -540.5q0 -351 -136.5 -541t-386.5 -190q-249 0 -385.5 190t-136.5 541zM281 711q0 -287 85.5 -435.5t249.5 -148.5t250 149.5t86 434.5q0 284 -86 433.5t-250 149.5t-249.5 -148.5t-85.5 -434.5z M364 1907h182l205 -355h-104z" />
<glyph unicode="&#xd3;" horiz-adv-x="1233" d="M94 711q0 350 136.5 540.5t385.5 190.5q250 0 386.5 -190.5t136.5 -540.5q0 -351 -136.5 -541t-386.5 -190q-249 0 -385.5 190t-136.5 541zM281 711q0 -287 85.5 -435.5t249.5 -148.5t250 149.5t86 434.5q0 284 -86 433.5t-250 149.5t-249.5 -148.5t-85.5 -434.5z M481 1552l205 355h182l-283 -355h-104z" />
<glyph unicode="&#xd4;" horiz-adv-x="1233" d="M94 711q0 350 136.5 540.5t385.5 190.5q250 0 386.5 -190.5t136.5 -540.5q0 -351 -136.5 -541t-386.5 -190q-249 0 -385.5 190t-136.5 541zM281 711q0 -287 85.5 -435.5t249.5 -148.5t250 149.5t86 434.5q0 284 -86 433.5t-250 149.5t-249.5 -148.5t-85.5 -434.5z M329 1552l199 355h174l201 -355h-107l-180 250l-180 -250h-107z" />
<glyph unicode="&#xd5;" horiz-adv-x="1233" d="M94 711q0 350 136.5 540.5t385.5 190.5q250 0 386.5 -190.5t136.5 -540.5q0 -351 -136.5 -541t-386.5 -190q-249 0 -385.5 190t-136.5 541zM281 711q0 -287 85.5 -435.5t249.5 -148.5t250 149.5t86 434.5q0 284 -86 433.5t-250 149.5t-249.5 -148.5t-85.5 -434.5z M319 1608q23 97 73 146.5t124 49.5q16 0 31 -2.5t30 -7.5l99 -31q17 -5 30.5 -7.5t24.5 -2.5q34 0 57 19t37 57h88q-26 -99 -74.5 -148t-120.5 -49q-14 0 -32 3t-36 8l-95 28q-17 5 -31 7.5t-25 2.5q-31 0 -53.5 -17.5t-38.5 -55.5h-88z" />
<glyph unicode="&#xd6;" horiz-adv-x="1233" d="M94 711q0 350 136.5 540.5t385.5 190.5q250 0 386.5 -190.5t136.5 -540.5q0 -351 -136.5 -541t-386.5 -190q-249 0 -385.5 190t-136.5 541zM281 711q0 -287 85.5 -435.5t249.5 -148.5t250 149.5t86 434.5q0 284 -86 433.5t-250 149.5t-249.5 -148.5t-85.5 -434.5z M366 1624v187h168v-187h-168zM698 1624v187h166v-187h-166z" />
<glyph unicode="&#xd7;" horiz-adv-x="1706" d="M301 135l475 475l-475 477l80 82l477 -477l475 477l82 -82l-475 -477l475 -475l-82 -82l-475 475l-477 -475z" />
<glyph unicode="&#xd8;" horiz-adv-x="1233" d="M-10 10l190 244q-44 87 -65 197t-21 260q0 344 136 537.5t374 193.5q114 0 207 -42t166 -126l160 209l98 -76l-184 -236q44 -85 66 -199.5t22 -260.5q0 -344 -137 -537.5t-375 -193.5q-117 0 -208 41.5t-167 130.5l-168 -218zM276 694q0 -89 7.5 -155.5t23.5 -124.5 l567 727q-42 76 -109 115.5t-153 39.5q-166 0 -251 -152t-85 -450zM354 287q48 -82 113.5 -122t150.5 -40q163 0 250.5 148t87.5 423q0 90 -8 166.5t-24 149.5z" />
<glyph unicode="&#xd9;" horiz-adv-x="1188" d="M156 522v899h176v-915q0 -202 63 -290.5t203 -88.5t203 88.5t63 290.5v915h168v-899q0 -277 -107 -409.5t-331 -132.5q-223 0 -330.5 133t-107.5 409zM342 1907h182l205 -355h-104z" />
<glyph unicode="&#xda;" horiz-adv-x="1188" d="M156 522v899h176v-915q0 -202 63 -290.5t203 -88.5t203 88.5t63 290.5v915h168v-899q0 -277 -107 -409.5t-331 -132.5q-223 0 -330.5 133t-107.5 409zM459 1552l205 355h182l-283 -355h-104z" />
<glyph unicode="&#xdb;" horiz-adv-x="1188" d="M156 522v899h176v-915q0 -202 63 -290.5t203 -88.5t203 88.5t63 290.5v915h168v-899q0 -277 -107 -409.5t-331 -132.5q-223 0 -330.5 133t-107.5 409zM307 1552l199 355h174l201 -355h-107l-180 250l-180 -250h-107z" />
<glyph unicode="&#xdc;" horiz-adv-x="1188" d="M156 522v899h176v-915q0 -202 63 -290.5t203 -88.5t203 88.5t63 290.5v915h168v-899q0 -277 -107 -409.5t-331 -132.5q-223 0 -330.5 133t-107.5 409zM344 1624v187h168v-187h-168zM676 1624v187h166v-187h-166z" />
<glyph unicode="&#xdd;" horiz-adv-x="965" d="M-31 1421h203l322 -659l315 659h186l-415 -823v-598h-177v600zM348 1552l205 355h182l-283 -355h-104z" />
<glyph unicode="&#xde;" horiz-adv-x="963" d="M162 0v1421h176v-270h119q228 0 340 -100t112 -303q0 -219 -117.5 -319.5t-373.5 -100.5h-80v-328h-176zM338 477h125q144 0 205 63t61 210q0 136 -65 195t-226 59h-100v-527z" />
<glyph unicode="&#xdf;" horiz-adv-x="997" d="M141 0v1008q0 282 85.5 411t269.5 129q172 0 270 -105.5t98 -291.5q0 -134 -63 -221t-178 -113q146 -22 223.5 -120t77.5 -263q0 -215 -99.5 -334.5t-277.5 -119.5q-33 0 -64 4.5t-61 13.5l17 143q26 -9 51.5 -13.5t52.5 -4.5q102 0 152 76.5t50 232.5q0 155 -64 231 t-194 76q-4 0 -16 -1t-18 -1v146h6q117 0 177 69.5t60 206.5q0 120 -47.5 184t-136.5 64q-111 0 -157 -75t-46 -273v-1059h-168z" />
<glyph unicode="&#xe0;" horiz-adv-x="938" d="M57 293q0 170 121.5 258t358.5 88q5 0 37.5 -2.5t60.5 -3.5v63q0 111 -55.5 169.5t-161.5 58.5q-74 0 -137 -26.5t-115 -78.5l-19 154q69 42 146 65t151 23q194 0 276.5 -94.5t82.5 -327.5v-442q0 -62 2.5 -108.5t7.5 -88.5h-158l-16 125q-49 -74 -118 -109.5t-163 -35.5 q-137 0 -219 84.5t-82 228.5zM217 1526h182l205 -355h-104zM225 301q0 -88 47 -137t131 -49q119 0 175.5 78.5t56.5 244.5v80q-17 1 -38 1.5t-65 0.5q-155 0 -231 -54t-76 -165z" />
<glyph unicode="&#xe1;" horiz-adv-x="938" d="M57 293q0 170 121.5 258t358.5 88q5 0 37.5 -2.5t60.5 -3.5v63q0 111 -55.5 169.5t-161.5 58.5q-74 0 -137 -26.5t-115 -78.5l-19 154q69 42 146 65t151 23q194 0 276.5 -94.5t82.5 -327.5v-442q0 -62 2.5 -108.5t7.5 -88.5h-158l-16 125q-49 -74 -118 -109.5t-163 -35.5 q-137 0 -219 84.5t-82 228.5zM225 301q0 -88 47 -137t131 -49q119 0 175.5 78.5t56.5 244.5v80q-17 1 -38 1.5t-65 0.5q-155 0 -231 -54t-76 -165zM334 1171l205 355h182l-283 -355h-104z" />
<glyph unicode="&#xe2;" horiz-adv-x="938" d="M57 293q0 170 121.5 258t358.5 88q5 0 37.5 -2.5t60.5 -3.5v63q0 111 -55.5 169.5t-161.5 58.5q-74 0 -137 -26.5t-115 -78.5l-19 154q69 42 146 65t151 23q194 0 276.5 -94.5t82.5 -327.5v-442q0 -62 2.5 -108.5t7.5 -88.5h-158l-16 125q-49 -74 -118 -109.5t-163 -35.5 q-137 0 -219 84.5t-82 228.5zM182 1171l199 355h174l201 -355h-107l-180 250l-180 -250h-107zM225 301q0 -88 47 -137t131 -49q119 0 175.5 78.5t56.5 244.5v80q-17 1 -38 1.5t-65 0.5q-155 0 -231 -54t-76 -165z" />
<glyph unicode="&#xe3;" horiz-adv-x="938" d="M57 293q0 170 121.5 258t358.5 88q5 0 37.5 -2.5t60.5 -3.5v63q0 111 -55.5 169.5t-161.5 58.5q-74 0 -137 -26.5t-115 -78.5l-19 154q69 42 146 65t151 23q194 0 276.5 -94.5t82.5 -327.5v-442q0 -62 2.5 -108.5t7.5 -88.5h-158l-16 125q-49 -74 -118 -109.5t-163 -35.5 q-137 0 -219 84.5t-82 228.5zM172 1227q23 97 73 146.5t124 49.5q16 0 31 -2.5t30 -7.5l99 -31q17 -5 30.5 -7.5t24.5 -2.5q34 0 57 19t37 57h88q-26 -99 -74.5 -148t-120.5 -49q-14 0 -32 3t-36 8l-95 28q-17 5 -31 7.5t-25 2.5q-31 0 -53.5 -17.5t-38.5 -55.5h-88z M225 301q0 -88 47 -137t131 -49q119 0 175.5 78.5t56.5 244.5v80q-17 1 -38 1.5t-65 0.5q-155 0 -231 -54t-76 -165z" />
<glyph unicode="&#xe4;" horiz-adv-x="938" d="M57 293q0 170 121.5 258t358.5 88q5 0 37.5 -2.5t60.5 -3.5v63q0 111 -55.5 169.5t-161.5 58.5q-74 0 -137 -26.5t-115 -78.5l-19 154q69 42 146 65t151 23q194 0 276.5 -94.5t82.5 -327.5v-442q0 -62 2.5 -108.5t7.5 -88.5h-158l-16 125q-49 -74 -118 -109.5t-163 -35.5 q-137 0 -219 84.5t-82 228.5zM219 1243v187h168v-187h-168zM225 301q0 -88 47 -137t131 -49q119 0 175.5 78.5t56.5 244.5v80q-17 1 -38 1.5t-65 0.5q-155 0 -231 -54t-76 -165zM551 1243v187h166v-187h-166z" />
<glyph unicode="&#xe5;" horiz-adv-x="938" d="M57 293q0 170 121.5 257t358.5 87q7 0 41.5 -1.5t56.5 -2.5v63q0 111 -55.5 169.5t-161.5 58.5q-74 0 -137 -26.5t-115 -78.5l-19 154q69 42 146 65t151 23q194 0 276.5 -94.5t82.5 -327.5v-442q0 -62 2.5 -108.5t7.5 -88.5h-158l-16 125q-49 -74 -118 -109.5t-163 -35.5 q-137 0 -219 84.5t-82 228.5zM225 301q0 -88 47 -137t131 -49q119 0 175.5 78.5t56.5 244.5v80q-41 3 -62 3.5t-41 0.5q-154 0 -230.5 -55t-76.5 -166zM229 1374q0 104 72 176t174 72q103 0 175.5 -72.5t72.5 -175.5t-72 -175.5t-176 -72.5q-103 0 -174.5 72t-71.5 176z M334 1374q0 -58 42 -99.5t101 -41.5t100 40.5t41 98.5q0 61 -41 103.5t-100 42.5q-60 0 -101.5 -42t-41.5 -102z" />
<glyph unicode="&#xe6;" horiz-adv-x="1432" d="M57 287q0 174 115 259t350 85h8l78 -2v67q0 109 -53 168.5t-152 59.5q-67 0 -125.5 -25.5t-115.5 -79.5l-19 154q63 43 136 65.5t149 22.5q102 0 177.5 -38.5t111.5 -109.5q54 76 125 112t166 36q160 0 251 -129t91 -361v-73h-576v-21q0 -172 74.5 -265t212.5 -93 q59 0 116.5 16.5t118.5 50.5l2 -143q-58 -31 -122 -46t-140 -15q-126 0 -212.5 45t-139.5 139q-54 -95 -134.5 -139.5t-197.5 -44.5q-137 0 -216 80.5t-79 224.5zM223 299q0 -87 46.5 -134.5t129.5 -47.5q106 0 156.5 76t50.5 235v80l-55 2h-12q-171 0 -243.5 -49 t-72.5 -162zM778 618l408 1q-4 150 -53.5 227.5t-141.5 77.5q-95 0 -148.5 -77t-64.5 -229z" />
<glyph unicode="&#xe7;" horiz-adv-x="772" d="M84 524q0 249 121 393t330 144q49 0 99 -9t103 -28l-4 -156q-45 27 -85.5 38.5t-86.5 11.5q-147 0 -222 -95.5t-75 -281.5q0 -203 78 -310.5t223 -107.5q44 0 87 10.5t93 34.5l5 -145q-53 -21 -109.5 -31t-114.5 -10q-206 0 -324 143.5t-118 398.5zM237 -332 q81 -18 141 -27.5t97 -9.5q66 0 97.5 20.5t31.5 63.5q0 51 -35 74t-111 23q-5 0 -19.5 -1t-23.5 -1v190h76v-104h19q106 0 163.5 -46t57.5 -131q0 -90 -60.5 -137t-177.5 -47q-54 0 -116.5 10.5t-139.5 32.5v90z" />
<glyph unicode="&#xe8;" horiz-adv-x="915" d="M82 518q0 249 106.5 396t286.5 147q165 0 263 -131t98 -352q0 -47 -0.5 -67t-2.5 -36h-575q5 -175 78.5 -265.5t210.5 -90.5q58 0 115 16.5t118 50.5l4 -143q-56 -31 -121.5 -46t-142.5 -15q-218 0 -328 134.5t-110 401.5zM207 1526h182l205 -355h-104zM256 596h414v8 q0 156 -50 238t-145 82q-99 0 -153.5 -81.5t-65.5 -246.5z" />
<glyph unicode="&#xe9;" horiz-adv-x="915" d="M82 518q0 249 106.5 396t286.5 147q165 0 263 -131t98 -352q0 -47 -0.5 -67t-2.5 -36h-575q5 -175 78.5 -265.5t210.5 -90.5q58 0 115 16.5t118 50.5l4 -143q-56 -31 -121.5 -46t-142.5 -15q-218 0 -328 134.5t-110 401.5zM256 596h414v8q0 156 -50 238t-145 82 q-99 0 -153.5 -81.5t-65.5 -246.5zM324 1171l205 355h182l-283 -355h-104z" />
<glyph unicode="&#xea;" horiz-adv-x="915" d="M82 518q0 249 106.5 396t286.5 147q165 0 263 -131t98 -352q0 -47 -0.5 -67t-2.5 -36h-575q5 -175 78.5 -265.5t210.5 -90.5q58 0 115 16.5t118 50.5l4 -143q-56 -31 -121.5 -46t-142.5 -15q-218 0 -328 134.5t-110 401.5zM172 1171l199 355h174l201 -355h-107l-180 250 l-180 -250h-107zM256 596h414v8q0 156 -50 238t-145 82q-99 0 -153.5 -81.5t-65.5 -246.5z" />
<glyph unicode="&#xeb;" horiz-adv-x="915" d="M82 518q0 249 106.5 396t286.5 147q165 0 263 -131t98 -352q0 -47 -0.5 -67t-2.5 -36h-575q5 -175 78.5 -265.5t210.5 -90.5q58 0 115 16.5t118 50.5l4 -143q-56 -31 -121.5 -46t-142.5 -15q-218 0 -328 134.5t-110 401.5zM209 1243v187h168v-187h-168zM256 596h414v8 q0 156 -50 238t-145 82q-99 0 -153.5 -81.5t-65.5 -246.5zM541 1243v187h166v-187h-166z" />
<glyph unicode="&#xec;" horiz-adv-x="449" d="M-27 1526h182l205 -355h-104zM141 0v1040h168v-1040h-168z" />
<glyph unicode="&#xed;" horiz-adv-x="449" d="M90 1171l205 355h182l-283 -355h-104zM141 0v1040h168v-1040h-168z" />
<glyph unicode="&#xee;" horiz-adv-x="449" d="M-62 1171l199 355h174l201 -355h-107l-180 250l-180 -250h-107zM141 0v1040h168v-1040h-168z" />
<glyph unicode="&#xef;" horiz-adv-x="449" d="M-25 1243v187h168v-187h-168zM141 0v1040h168v-1040h-168zM307 1243v187h166v-187h-166z" />
<glyph unicode="&#xf0;" horiz-adv-x="995" d="M86 522q0 240 100 381t267 141q60 0 101.5 -12t74.5 -39q-25 60 -56.5 118.5t-70.5 117.5l-230 -115l-43 88l220 111q-31 45 -70 97t-92 118h168l18 -21q75 -85 107 -129l229 113l43 -90l-209 -105q137 -206 202.5 -399t65.5 -389q0 -249 -109 -388.5t-302 -139.5 q-198 0 -306 141.5t-108 400.5zM264 514q0 -190 60.5 -291.5t173.5 -101.5t173 101t60 292t-60 293t-171 102q-114 0 -175 -102t-61 -293z" />
<glyph unicode="&#xf1;" horiz-adv-x="995" d="M135 1040h156q4 -49 8 -145v-6q41 82 113 127t161 45q139 0 214 -87.5t75 -248.5v-725h-170v700q0 106 -40 158.5t-122 52.5q-99 0 -157 -76t-58 -208v-6v-621h-170v780q0 58 -2.5 121.5t-7.5 138.5zM201 1227q23 97 73 146.5t124 49.5q16 0 31 -2.5t30 -7.5l99 -31 q17 -5 30.5 -7.5t24.5 -2.5q34 0 57 19t37 57h88q-26 -99 -74.5 -148t-120.5 -49q-14 0 -32 3t-36 8l-95 28q-17 5 -31 7.5t-25 2.5q-31 0 -53.5 -17.5t-38.5 -55.5h-88z" />
<glyph unicode="&#xf2;" horiz-adv-x="995" d="M84 520q0 260 107.5 400.5t306.5 140.5t306 -140t107 -401q0 -260 -107.5 -400t-305.5 -140q-199 0 -306.5 140t-107.5 400zM246 1526h182l205 -355h-104zM264 520q0 -193 60.5 -296t173.5 -103t173 103t60 296q0 194 -60 298t-173 104t-173.5 -104t-60.5 -298z" />
<glyph unicode="&#xf3;" horiz-adv-x="995" d="M84 520q0 260 107.5 400.5t306.5 140.5t306 -140t107 -401q0 -260 -107.5 -400t-305.5 -140q-199 0 -306.5 140t-107.5 400zM264 520q0 -193 60.5 -296t173.5 -103t173 103t60 296q0 194 -60 298t-173 104t-173.5 -104t-60.5 -298zM363 1171l205 355h182l-283 -355h-104z " />
<glyph unicode="&#xf4;" horiz-adv-x="995" d="M84 520q0 260 107.5 400.5t306.5 140.5t306 -140t107 -401q0 -260 -107.5 -400t-305.5 -140q-199 0 -306.5 140t-107.5 400zM211 1171l199 355h174l201 -355h-107l-180 250l-180 -250h-107zM264 520q0 -193 60.5 -296t173.5 -103t173 103t60 296q0 194 -60 298t-173 104 t-173.5 -104t-60.5 -298z" />
<glyph unicode="&#xf5;" horiz-adv-x="995" d="M84 520q0 260 107.5 400.5t306.5 140.5t306 -140t107 -401q0 -260 -107.5 -400t-305.5 -140q-199 0 -306.5 140t-107.5 400zM201 1227q23 97 73 146.5t124 49.5q16 0 31 -2.5t30 -7.5l99 -31q17 -5 30.5 -7.5t24.5 -2.5q34 0 57 19t37 57h88q-26 -99 -74.5 -148 t-120.5 -49q-14 0 -32 3t-36 8l-95 28q-17 5 -31 7.5t-25 2.5q-31 0 -53.5 -17.5t-38.5 -55.5h-88zM264 520q0 -193 60.5 -296t173.5 -103t173 103t60 296q0 194 -60 298t-173 104t-173.5 -104t-60.5 -298z" />
<glyph unicode="&#xf6;" horiz-adv-x="995" d="M84 520q0 260 107.5 400.5t306.5 140.5t306 -140t107 -401q0 -260 -107.5 -400t-305.5 -140q-199 0 -306.5 140t-107.5 400zM248 1243v187h168v-187h-168zM264 520q0 -193 60.5 -296t173.5 -103t173 103t60 296q0 194 -60 298t-173 104t-173.5 -104t-60.5 -298zM580 1243 v187h166v-187h-166z" />
<glyph unicode="&#xf7;" horiz-adv-x="1706" d="M254 553v117h1198v-117h-1198zM739 250q0 48 34 81.5t81 33.5t81 -34t34 -81t-33.5 -81t-81.5 -34t-81.5 33.5t-33.5 81.5zM739 971q0 47 34 80.5t81 33.5q48 0 81.5 -33.5t33.5 -80.5q0 -48 -33.5 -81.5t-81.5 -33.5q-49 0 -82 33.5t-33 81.5z" />
<glyph unicode="&#xf8;" horiz-adv-x="995" d="M16 4l138 174q-35 67 -52.5 152t-17.5 190q0 256 107 398.5t298 142.5q87 0 150.5 -23.5t122.5 -76.5l100 129l86 -64l-117 -152q41 -60 60.5 -148t19.5 -206q0 -255 -105.5 -396.5t-293.5 -141.5q-97 0 -168 27.5t-121 84.5l-121 -155zM256 516q0 -57 4.5 -101.5 t13.5 -82.5l396 504q-32 46 -75 69t-99 23q-117 0 -178.5 -106t-61.5 -306zM317 219q30 -52 76.5 -79t108.5 -27q112 0 174.5 103t62.5 290q0 85 -5.5 134t-18.5 89z" />
<glyph unicode="&#xf9;" horiz-adv-x="995" d="M135 315v725h170v-700q0 -106 40.5 -158.5t121.5 -52.5q99 0 157 76.5t58 210.5v6v618h170v-778q0 -72 2 -136.5t6 -125.5h-155q-3 30 -5 101q-1 32 -2 51q-39 -83 -111 -127.5t-163 -44.5q-139 0 -214 87t-75 248zM246 1526h182l205 -355h-104z" />
<glyph unicode="&#xfa;" horiz-adv-x="995" d="M135 315v725h170v-700q0 -106 40.5 -158.5t121.5 -52.5q99 0 157 76.5t58 210.5v6v618h170v-778q0 -72 2 -136.5t6 -125.5h-155q-3 30 -5 101q-1 32 -2 51q-39 -83 -111 -127.5t-163 -44.5q-139 0 -214 87t-75 248zM363 1171l205 355h182l-283 -355h-104z" />
<glyph unicode="&#xfb;" horiz-adv-x="995" d="M135 315v725h170v-700q0 -106 40.5 -158.5t121.5 -52.5q99 0 157 76.5t58 210.5v6v618h170v-778q0 -72 2 -136.5t6 -125.5h-155q-3 30 -5 101q-1 32 -2 51q-39 -83 -111 -127.5t-163 -44.5q-139 0 -214 87t-75 248zM211 1171l199 355h174l201 -355h-107l-180 250 l-180 -250h-107z" />
<glyph unicode="&#xfc;" horiz-adv-x="995" d="M135 315v725h170v-700q0 -106 40.5 -158.5t121.5 -52.5q99 0 157 76.5t58 210.5v6v618h170v-778q0 -72 2 -136.5t6 -125.5h-155q-3 30 -5 101q-1 32 -2 51q-39 -83 -111 -127.5t-163 -44.5q-139 0 -214 87t-75 248zM248 1243v187h168v-187h-168zM580 1243v187h166v-187 h-166z" />
<glyph unicode="&#xfd;" horiz-adv-x="862" d="M35 1040h186l223 -850l224 850h163l-337 -1175q-57 -197 -116 -258.5t-163 -61.5q-34 0 -63 4t-56 13l15 145q28 -8 44.5 -11t28.5 -3q55 0 86.5 34t55.5 119l32 117zM297 1171l205 355h182l-283 -355h-104z" />
<glyph unicode="&#xfe;" horiz-adv-x="1012" d="M145 -446v1974h168v-623q45 80 107.5 118t148.5 38q175 0 267 -138t92 -403t-91.5 -402.5t-267.5 -137.5q-84 0 -146.5 38t-109.5 119v-583h-168zM313 459q0 -162 57 -250t160 -88q108 0 163 100t55 299q0 200 -54.5 301t-161.5 101q-103 0 -161 -89.5t-58 -250.5v-123z " />
<glyph unicode="&#xff;" horiz-adv-x="862" d="M35 1040h186l223 -850l224 850h163l-337 -1175q-57 -197 -116 -258.5t-163 -61.5q-34 0 -63 4t-56 13l15 145q28 -8 44.5 -11t28.5 -3q55 0 86.5 34t55.5 119l32 117zM182 1243v187h168v-187h-168zM514 1243v187h166v-187h-166z" />
<glyph unicode="&#x152;" horiz-adv-x="1561" d="M94 711q0 360 138 535t421 175h271h510v-147h-455v-467h430v-150h-430v-510h479v-147h-827q-264 0 -400.5 180.5t-136.5 530.5zM281 713q0 -305 92 -440.5t299 -135.5q15 0 42.5 2t90.5 8l-1 1129q-46 5 -80.5 7.5t-59.5 2.5q-200 0 -291.5 -137t-91.5 -436z" />
<glyph unicode="&#x153;" horiz-adv-x="1524" d="M84 520q0 260 104.5 400.5t296.5 140.5q106 0 183.5 -41.5t130.5 -126.5q54 85 126 126.5t167 41.5q164 0 258 -133.5t94 -368.5q0 -19 -0.5 -39.5t-1.5 -44.5h-565q4 -175 76 -265.5t206 -90.5q58 0 115.5 16.5t116.5 50.5l2 -143q-57 -31 -120.5 -46t-137.5 -15 q-116 0 -195 39t-141 126q-56 -86 -132 -126.5t-182 -40.5q-192 0 -296.5 140t-104.5 400zM264 520q0 -195 58 -297t167 -102q110 0 167 102t57 297t-58 298.5t-166 103.5q-109 0 -167 -103.5t-58 -298.5zM879 596h399v10q0 156 -48 237t-140 81q-97 0 -149.5 -82 t-61.5 -246z" />
<glyph unicode="&#x178;" horiz-adv-x="965" d="M-31 1421h203l322 -659l315 659h186l-415 -823v-598h-177v600zM233 1624v187h168v-187h-168zM565 1624v187h166v-187h-166z" />
<glyph unicode="&#x2c6;" horiz-adv-x="1024" d="M225 1171l199 355h174l201 -355h-107l-180 250l-180 -250h-107z" />
<glyph unicode="&#x2dc;" horiz-adv-x="1024" d="M215 1227q23 97 73 146.5t124 49.5q16 0 31 -2.5t30 -7.5l99 -31q17 -5 30.5 -7.5t24.5 -2.5q34 0 57 19t37 57h88q-26 -99 -74.5 -148t-120.5 -49q-14 0 -32 3t-36 8l-95 28q-17 5 -31 7.5t-25 2.5q-31 0 -53.5 -17.5t-38.5 -55.5h-88z" />
<glyph unicode="&#x2000;" horiz-adv-x="991" />
<glyph unicode="&#x2001;" horiz-adv-x="1982" />
<glyph unicode="&#x2002;" horiz-adv-x="991" />
<glyph unicode="&#x2003;" horiz-adv-x="1982" />
<glyph unicode="&#x2004;" horiz-adv-x="660" />
<glyph unicode="&#x2005;" horiz-adv-x="495" />
<glyph unicode="&#x2006;" horiz-adv-x="330" />
<glyph unicode="&#x2007;" horiz-adv-x="330" />
<glyph unicode="&#x2008;" horiz-adv-x="247" />
<glyph unicode="&#x2009;" horiz-adv-x="396" />
<glyph unicode="&#x200a;" horiz-adv-x="110" />
<glyph unicode="&#x2010;" horiz-adv-x="602" d="M84 461v147h434v-147h-434z" />
<glyph unicode="&#x2011;" horiz-adv-x="602" d="M84 461v147h434v-147h-434z" />
<glyph unicode="&#x2012;" horiz-adv-x="602" d="M84 461v147h434v-147h-434z" />
<glyph unicode="&#x2013;" horiz-adv-x="1024" d="M-14 479v111h1052v-111h-1052z" />
<glyph unicode="&#x2014;" horiz-adv-x="2048" d="M-14 479v111h2076v-111h-2076z" />
<glyph unicode="&#x2018;" horiz-adv-x="455" d="M88 952l131 469h150l-101 -469h-180z" />
<glyph unicode="&#x2019;" horiz-adv-x="455" d="M109 952l100 469h182l-133 -469h-149z" />
<glyph unicode="&#x201a;" horiz-adv-x="455" d="M53 -242l101 471h180l-131 -471h-150z" />
<glyph unicode="&#x201c;" horiz-adv-x="793" d="M88 952l131 469h150l-101 -469h-180zM426 952l133 469h148l-99 -469h-182z" />
<glyph unicode="&#x201d;" horiz-adv-x="793" d="M109 952l100 469h182l-133 -469h-149zM449 952l98 469h182l-133 -469h-147z" />
<glyph unicode="&#x201e;" horiz-adv-x="793" d="M53 -242l101 471h180l-131 -471h-150zM391 -242l101 471h180l-131 -471h-150z" />
<glyph unicode="&#x2022;" horiz-adv-x="1208" d="M307 762q0 123 87 209t210 86q122 0 208.5 -86.5t86.5 -208.5t-87.5 -209.5t-209.5 -87.5q-123 0 -209 87t-86 210z" />
<glyph unicode="&#x2026;" horiz-adv-x="2048" d="M248 0v229h188v-229h-188zM930 0v229h188v-229h-188zM1614 0v229h188v-229h-188z" />
<glyph unicode="&#x202f;" horiz-adv-x="396" />
<glyph unicode="&#x2039;" horiz-adv-x="500" d="M84 520l217 418h148l-205 -418l205 -418h-148z" />
<glyph unicode="&#x203a;" horiz-adv-x="500" d="M51 102l207 418l-207 418h148l217 -418l-217 -418h-148z" />
<glyph unicode="&#x205f;" horiz-adv-x="495" />
<glyph unicode="&#x20ac;" d="M10 514l25 96h115q-3 28 -4 50.5t-1 41.5q0 35 4 103l1 6h-140l25 98h125q37 251 165 393t314 142q54 0 109 -12.5t110 -36.5v-172q-55 36 -107.5 53.5t-105.5 17.5q-123 0 -204.5 -101t-104.5 -284h465l-27 -98h-446q-1 -18 -1.5 -39t-0.5 -63v-64v-3q2 -17 2 -32h393 l-27 -96h-354q31 -180 114 -279.5t199 -99.5q44 0 97.5 15.5t113.5 46.5v-168q-50 -25 -102 -36t-117 -11q-182 0 -313 142.5t-172 389.5h-150z" />
<glyph unicode="&#x2122;" horiz-adv-x="1706" d="M254 1389v67h440v-67h-172v-467h-94v467h-174zM819 922v534h129l160 -405l149 405h132v-534h-82v458l-172 -458h-54l-180 458v-458h-82z" />
<glyph unicode="&#x25fc;" horiz-adv-x="1040" d="M0 0v1040h1040v-1040h-1040z" />
<glyph unicode="&#xfb01;" horiz-adv-x="961" d="M6 907v133h170v195q0 170 61.5 241.5t204.5 71.5q26 0 54 -3.5t63 -10.5v-139q-35 7 -53 9.5t-33 2.5q-71 0 -100 -37t-29 -137v-193h180v-133h-180v-907h-168v907h-170zM643 1262v200h186v-200h-186zM651 0v1040h168v-1040h-168z" />
<glyph unicode="&#xfb02;" horiz-adv-x="961" d="M6 907v133h170v195q0 170 61.5 241.5t204.5 71.5q26 0 54 -3.5t63 -10.5v-139q-35 7 -53 9.5t-33 2.5q-71 0 -100 -37t-29 -137v-193h180v-133h-180v-907h-168v907h-170zM651 0v1528h168v-1528h-168z" />
</font>
</defs>
</svg>
